<?xml version="1.0" encoding="iso-8859-1"?>
<!-- Uploaded to: SVG Repo, www.svgrepo.com, Generator: SVG Repo Mixer Tools -->
<svg height="800px" width="800px" version="1.1" id="Capa_1" xmlns="http://www.w3.org/2000/svg" xmlns:xlink="http://www.w3.org/1999/xlink" 
	 viewBox="0 0 502.664 502.664" xml:space="preserve">
<g>
	<g>
		<path style="fill:#010002;" d="M363.532,79.873c-72.952,14.496-67.754,73.858-126.405,98.816
			c-25.971,11.023-85.809,17.688-92.323,14.603c-39.733-18.68-98.169-65.403-98.169-65.403s5.22,38.051,25.583,70.903
			C24.612,187.533,0,163.179,0,163.179s31.536,274.769,246.791,261.503C410.6,414.608,400.828,269.631,427.662,227.438
			c26.791-42.128,75.002-33.392,75.002-33.392S473.177,58.129,363.532,79.873z M401.864,162.532
			c-10.009,0-18.098-8.111-18.098-18.098s8.089-18.098,18.098-18.098c9.966,0,18.076,8.132,18.076,18.098
			S411.851,162.532,401.864,162.532z"/>
	</g>
	<g>
	</g>
	<g>
	</g>
	<g>
	</g>
	<g>
	</g>
	<g>
	</g>
	<g>
	</g>
	<g>
	</g>
	<g>
	</g>
	<g>
	</g>
	<g>
	</g>
	<g>
	</g>
	<g>
	</g>
	<g>
	</g>
	<g>
	</g>
	<g>
	</g>
</g>
</svg>